# xmcd
#
# Track frame offsets: 
#        150
#        16255
#        30809
#        45900
#        67482
#        79836
#        99885
#        116372
#        128115
#        144244
#        166752
#        175281
#
# Disc length: 2574 seconds
#
# Revision: 0
# Processed by: cddbd v1.5.2PL0 Copyright (c) Steve Scherf et al.
# Submitted via: ExactAudioCopyFreeDBPlugin 1.0
#
DISCID=890a0c0c
DTITLE=Zatúlaní - Bosý kráľ
DYEAR=2015
DGENRE=Bluegrass
TTITLE0=Útek
TTITLE1=Život na koľajniciach
TTITLE2=Optimistická
TTITLE3=Pocestný cudzinec
TTITLE4=Kým ty spíš
TTITLE5=K tebe späť
TTITLE6=Bosý kráľ
TTITLE7=Tak stoj!
TTITLE8=Ranný vlak
TTITLE9=Korýtko
TTITLE10=Pošta snov
TTITLE11=Krásny deň
EXTD=
EXTT0=
EXTT1=
EXTT2=
EXTT3=
EXTT4=
EXTT5=
EXTT6=
EXTT7=
EXTT8=
EXTT9=
EXTT10=
EXTT11=
PLAYORDER=
